<svg xmlns="http://www.w3.org/2000/svg" viewBox="0 0 403.38868 91.05651" fill="#10a800">
  <path d="M29.99968,4.8705,0,4.88362v84.786H29.99968c12.69033,0,24.20151-4.34775,32.41139-12.23575A41.34378,41.34378,0,0,0,74.97455,47.25856V47.035A40.99507,40.99507,0,0,0,62.39632,16.97811C54.19206,9.16905,42.68778,4.8705,29.99968,4.8705m0,12.06005c9.37661,0,17.42531,3.04445,23.27326,8.80654a29.96205,29.96205,0,0,1,8.57661,21.52147v.23566c0,17.72271-13.09935,30.113-31.84987,30.13238h-17.211l-.01311-60.696Z"/>
  <path d="M113.57486,24.81a31.8542,31.8542,0,0,0-23.223,9.81186,33.40806,33.40806,0,0,0-9.25022,23.3139v.25c0,18.43087,14.16594,32.87078,32.24625,32.87078h.00221c18.28329-.00692,32.60478-14.55774,32.60478-33.12472V57.703a33.22834,33.22834,0,0,0-9.15359-23.15438A31.83376,31.83376,0,0,0,113.57486,24.81m14.2724,48.3864a19.03154,19.03154,0,0,1-14.26784,6.27289c-11.17021,0-19.92638-9.4607-19.93552-21.53353v-.22361c0-12.20763,8.46955-21.4117,19.69928-21.4117,11.25665,0,20.07174,9.50252,20.07174,21.63133v.25394a22.19183,22.19183,0,0,1-5.56766,15.01068"/>
  <path d="M379.07388,24.79115c-7.54481,0-13.56834,2.644-18.33588,8.067V26.07337H348.42565V89.6479H360.738v-36.149c0-10.00466,6.51418-16.99252,15.84113-16.99252,9.35095,0,14.4994,5.78962,14.4994,16.30156v36.84h12.31015V50.61057c0-15.68264-9.54319-25.81942-24.3148-25.81942"/>
  <path d="M286.69451,25.13774a47.17279,47.17279,0,0,0-22.14612,5.29943l-1.44468.70114,3.8216,10.7202,1.7833-.88305a37.30617,37.30617,0,0,1,17.0799-4.1225c10.17684,0,15.42707,4.70125,15.609,13.97045a60.62039,60.62039,0,0,0-16.17859-2.01722c-7.87078,0-14.50854,1.84738-19.2017,5.33317-5.05018,3.76619-7.71418,9.32636-7.70727,16.07855v.23391c0,13.44475,11.936,20.48053,23.72562,20.48053a27.63681,27.63681,0,0,0,19.36533-7.39547v6.111h12.20834V51.19459c0-8.03722-2.242-14.39539-6.66059-18.89471-4.65545-4.75442-11.4683-7.16214-20.25412-7.16214M296.471,76.07663a20.38666,20.38666,0,0,1-12.73789,4.071c-6.456,0-12.99873-3.48415-12.99873-10.14767v-.23848c0-6.42891,5.749-10.26774,15.37789-10.26774a56.9567,56.9567,0,0,1,15.42016,2.11163v4.20075A12.81626,12.81626,0,0,1,296.471,76.07663"/>
  <rect x="324.79608" y="26.07279" width="12.32606" height="63.57277"/>
  <path d="M330.95793,0a8.92343,8.92343,0,1,0,8.93,8.92542A8.9364,8.9364,0,0,0,330.95793,0"/>
  <polygon points="222.9 21.861 201.766 35.691 180.632 21.861 165.252 31.931 165.252 26.105 153.361 26.105 153.361 89.699 165.648 89.699 165.648 46.118 180.632 36.314 195.622 46.118 195.631 89.699 207.933 89.699 207.933 46.118 222.9 36.296 237.881 46.104 237.885 89.699 250.176 89.699 250.167 39.76 222.9 21.861"/>
  <path d="M29.99968,4.8705,0,4.88362v84.786H29.99968c12.69033,0,24.20151-4.34775,32.41139-12.23575A41.34378,41.34378,0,0,0,74.97455,47.25856V47.035A40.99507,40.99507,0,0,0,62.39632,16.97811C54.19206,9.16905,42.68778,4.8705,29.99968,4.8705m0,12.06005c9.37661,0,17.42531,3.04445,23.27326,8.80654a29.96205,29.96205,0,0,1,8.57661,21.52147v.23566c0,17.72271-13.09935,30.113-31.84987,30.13238h-17.211l-.01311-60.696Z"/>
  <path d="M113.57486,24.81a31.8542,31.8542,0,0,0-23.223,9.81186,33.40806,33.40806,0,0,0-9.25022,23.3139v.25c0,18.43087,14.16594,32.87078,32.24625,32.87078h.00221c18.28329-.00692,32.60478-14.55774,32.60478-33.12472V57.703a33.22834,33.22834,0,0,0-9.15359-23.15438A31.83376,31.83376,0,0,0,113.57486,24.81m14.2724,48.3864a19.03154,19.03154,0,0,1-14.26784,6.27289c-11.17021,0-19.92638-9.4607-19.93552-21.53353v-.22361c0-12.20763,8.46955-21.4117,19.69928-21.4117,11.25665,0,20.07174,9.50252,20.07174,21.63133v.25394a22.19183,22.19183,0,0,1-5.56766,15.01068"/>
  <path d="M379.07388,24.79115c-7.54481,0-13.56834,2.644-18.33588,8.067V26.07337H348.42565V89.6479H360.738v-36.149c0-10.00466,6.51418-16.99252,15.84113-16.99252,9.35095,0,14.4994,5.78962,14.4994,16.30156v36.84h12.31015V50.61057c0-15.68264-9.54319-25.81942-24.3148-25.81942"/>
  <path d="M286.69451,25.13774a47.17279,47.17279,0,0,0-22.14612,5.29943l-1.44468.70114,3.8216,10.7202,1.7833-.88305a37.30617,37.30617,0,0,1,17.0799-4.1225c10.17684,0,15.42707,4.70125,15.609,13.97045a60.62039,60.62039,0,0,0-16.17859-2.01722c-7.87078,0-14.50854,1.84738-19.2017,5.33317-5.05018,3.76619-7.71418,9.32636-7.70727,16.07855v.23391c0,13.44475,11.936,20.48053,23.72562,20.48053a27.63681,27.63681,0,0,0,19.36533-7.39547v6.111h12.20834V51.19459c0-8.03722-2.242-14.39539-6.66059-18.89471-4.65545-4.75442-11.4683-7.16214-20.25412-7.16214M296.471,76.07663a20.38666,20.38666,0,0,1-12.73789,4.071c-6.456,0-12.99873-3.48415-12.99873-10.14767v-.23848c0-6.42891,5.749-10.26774,15.37789-10.26774a56.9567,56.9567,0,0,1,15.42016,2.11163v4.20075A12.81626,12.81626,0,0,1,296.471,76.07663"/>
  <rect x="324.79608" y="26.07279" width="12.32606" height="63.57277"/>
  <path d="M330.95793,0a8.92343,8.92343,0,1,0,8.93,8.92542A8.9364,8.9364,0,0,0,330.95793,0"/>
  <polygon points="222.9 21.861 201.766 35.691 180.632 21.861 165.252 31.931 165.252 26.105 153.361 26.105 153.361 89.699 165.648 89.699 165.648 46.118 180.632 36.314 195.622 46.118 195.631 89.699 207.933 89.699 207.933 46.118 222.9 36.296 237.881 46.104 237.885 89.699 250.176 89.699 250.167 39.76 222.9 21.861"/>
</svg>
