<svg xmlns="http://www.w3.org/2000/svg" viewBox="0 0 96.81462 67.83876" fill="#10a800">
  <polygon points="69.538 0 48.405 13.831 27.27 0 11.891 10.07 11.891 4.245 0 4.245 0 67.839 12.287 67.839 12.287 24.257 27.27 14.454 42.261 24.257 42.27 67.839 54.571 67.839 54.571 24.257 69.538 14.435 84.519 24.244 84.524 67.839 96.815 67.839 96.805 17.9 69.538 0"/>
  <polygon points="69.538 0 48.405 13.831 27.27 0 11.891 10.07 11.891 4.245 0 4.245 0 67.839 12.287 67.839 12.287 24.257 27.27 14.454 42.261 24.257 42.27 67.839 54.571 67.839 54.571 24.257 69.538 14.435 84.519 24.244 84.524 67.839 96.815 67.839 96.805 17.9 69.538 0"/>
</svg>
