<svg xmlns="http://www.w3.org/2000/svg" data-name="Layer 1" viewBox="0 0 135.81 34">
  <circle cx="17" cy="17" r="17" fill="#333"/>
  <path d="M20.17 24v-5.89h-6.34V24h-2.95V9.9h2.95v5.7h6.34V9.9h2.95V24z" fill="#fff"/>
  <path d="M51.7 22v-4.12h-4.44V22H45.2v-9.86h2.06v3.97h4.44v-3.97h2.07V22zM55.6 18.23c0-2.44 1.4-3.93 3.7-3.93s3.72 1.48 3.72 3.93c0 2.46-1.4 3.93-3.71 3.93s-3.72-1.47-3.72-3.93zm5.37 0c0-1.45-.61-2.3-1.66-2.3-1.06 0-1.67.85-1.67 2.3 0 1.47.6 2.3 1.67 2.3 1.06 0 1.66-.84 1.66-2.3zM64.64 14.46h1.93v1.23h.12a2.12 2.12 0 0 1 2.08-1.4 2.04 2.04 0 0 1 2.09 1.4h.12a2.38 2.38 0 0 1 2.27-1.4 2.31 2.31 0 0 1 2.44 2.54V22H73.7v-4.65c0-.9-.41-1.34-1.26-1.34a1.28 1.28 0 0 0-1.32 1.38V22H69.2v-4.73a1.14 1.14 0 0 0-1.24-1.26 1.34 1.34 0 0 0-1.33 1.45V22h-2zM84.35 19.85c-.3 1.42-1.6 2.31-3.45 2.31-2.3 0-3.65-1.45-3.65-3.9s1.38-3.96 3.62-3.96c2.22 0 3.54 1.41 3.54 3.8v.61h-5.18v.1a1.67 1.67 0 0 0 1.73 1.82 1.52 1.52 0 0 0 1.53-.78zm-5.11-2.41h3.21a1.52 1.52 0 0 0-1.57-1.62 1.61 1.61 0 0 0-1.64 1.62zM88.15 20.82h-.12V22H86.1V11.58h2v4.08h.11a2.4 2.4 0 0 1 2.27-1.32c1.9 0 3.05 1.45 3.05 3.89 0 2.42-1.16 3.89-3.05 3.89a2.46 2.46 0 0 1-2.33-1.3zm-.08-2.59c0 1.37.66 2.23 1.72 2.23s1.7-.85 1.7-2.23-.65-2.23-1.7-2.23c-1.05 0-1.71.86-1.72 2.23zM95.15 14.46h1.93v1.2h.12a1.94 1.94 0 0 1 1.94-1.32 2.78 2.78 0 0 1 .78.1v1.8a3.63 3.63 0 0 0-.95-.12 1.66 1.66 0 0 0-1.83 1.7V22h-1.99zM100.7 18.23c0-2.44 1.42-3.93 3.72-3.93s3.7 1.48 3.7 3.93c0 2.46-1.39 3.93-3.7 3.93s-3.72-1.47-3.72-3.93zm5.38 0c0-1.45-.61-2.3-1.66-2.3-1.06 0-1.67.85-1.67 2.3 0 1.47.6 2.3 1.67 2.3 1.06 0 1.66-.84 1.66-2.3zM117.88 22h-2.12l-1.34-5.2h-.13l-1.33 5.2h-2.1l-2-7.54h2.02l1.12 5.4h.12l1.32-5.4h1.9l1.33 5.4h.12l1.12-5.4h1.98zM124.06 14.3c1.92 0 3.04.8 3.15 2.24h-1.83c-.1-.49-.57-.79-1.3-.79-.71 0-1.24.32-1.24.8 0 .37.32.6 1.02.75l1.41.31c1.47.32 2.12.94 2.12 2.07 0 1.5-1.35 2.48-3.32 2.48-1.99 0-3.2-.8-3.33-2.26h1.94c.15.51.64.8 1.43.8.77 0 1.3-.31 1.3-.8 0-.37-.28-.6-.94-.74l-1.37-.3c-1.46-.33-2.18-1.02-2.18-2.19 0-1.42 1.26-2.37 3.14-2.37zM135.75 19.85c-.3 1.42-1.6 2.31-3.44 2.31-2.3 0-3.65-1.45-3.65-3.9s1.38-3.96 3.62-3.96c2.22 0 3.53 1.41 3.53 3.8v.61h-5.17v.1a1.67 1.67 0 0 0 1.72 1.82 1.52 1.52 0 0 0 1.54-.78zm-5.1-2.41h3.2a1.52 1.52 0 0 0-1.56-1.62 1.61 1.61 0 0 0-1.64 1.62z" fill="#333"/>
</svg>