<!-- <svg xmlns="http://www.w3.org/2000/svg" viewBox="0 0 45 45">
  <circle cx="22.5" cy="22.5" r="22.5" fill="#2F3336"/>
  <path d="M22.76221,30V23.93848H16.10107V30H13.7002V15.81738h2.40087v5.86035h6.66114V15.81738h2.42041V30Z" fill="#fff"/>
  <path d="M27.582,15.81738c2.71973,0,4.32031,1.59961,4.32031,3.82032a3.15823,3.15823,0,0,1-2.10058,3.06054,3.39528,3.39528,0,0,1,2.54,3.38086C32.3418,28.35938,30.582,30,27.94141,30H22.7002V15.81738Zm-.32031,6.001A1.97959,1.97959,0,0,0,29.502,19.83789c0-1.20019-.83984-1.98047-2.30078-1.98047H25.08105v3.96094Zm.25976,6.1416c1.44043,0,2.38086-.78027,2.38086-2.041a2.04064,2.04064,0,0,0-2.30078-2.08008H25.08105V27.96Z" fill="#fff"/>
</svg> -->

<svg xmlns="http://www.w3.org/2000/svg" viewBox="0 0 45 45">
  <circle cx="22.5" cy="22.5" r="22.5" fill="#2F3336"/>
  <path d="M19.76221,30V23.93848H13.10107V30H10.7002V15.81738h2.40087v5.86035h6.66114V15.81738h2.42041V30Z" fill="#fff"/>
  <path d="M30.46094,15.81738c2.7207,0,4.32129,1.59961,4.32129,3.82032a3.157,3.157,0,0,1-2.10059,3.06054,3.39714,3.39714,0,0,1,2.541,3.38086c0,2.28028-1.76075,3.9209-4.40137,3.9209H25.58008V15.81738Zm-.32032,6.001a1.98043,1.98043,0,0,0,2.24122-1.98047c0-1.20019-.84082-1.98047-2.30079-1.98047H27.96094v3.96094Zm.26075,6.1416c1.44043,0,2.37988-.78027,2.37988-2.041a2.0403,2.0403,0,0,0-2.2998-2.08008H27.96094V27.96Z" fill="#fff"/>
</svg>
