<svg xmlns="http://www.w3.org/2000/svg" viewBox="0 0 10.05313 13.46042">
  <title>pin</title>
  <g id="Layer_2" data-name="Layer 2">
    <path d="M5.02569,13.46042a1.56466,1.56466,0,0,1-1.43266-.788C2.83515,11.406,1.46536,8.96392.80781,7.75949A4.89811,4.89811,0,0,1,.42844,3.1196,5.1535,5.1535,0,0,1,4.98608.00022a5.02757,5.02757,0,0,1,5.067,5.02744,5.69872,5.69872,0,0,1-.81,2.73183c-.65153,1.1941-2.01787,3.63095-2.78437,4.91247A1.56533,1.56533,0,0,1,5.02569,13.46042Zm-.00012-11.256H5.00225A3.05762,3.05762,0,0,0,2.32568,4.0865,2.8078,2.8078,0,0,0,2.616,6.85363c.411.75326,1.13333,2.0473,1.76068,3.14185a.74718.74718,0,0,0,1.2972.00008C6.3064,8.89267,7.02706,7.60123,7.43471,6.85363A3.62293,3.62293,0,0,0,7.9715,5.15036,2.94609,2.94609,0,0,0,5.02557,2.20443Z" fill="#b2b2b2"/>
  </g>
</svg>
